<svg id="Capa_1" enable-background="new 0 0 510 510" height="512" viewBox="0 0 510 510" width="512" xmlns="http://www.w3.org/2000/svg" xmlns:xlink="http://www.w3.org/1999/xlink"><linearGradient id="lg1"><stop offset="0" stop-color="#fe646f"/><stop offset=".593" stop-color="#fb2b3a"/><stop offset="1" stop-color="#c41926"/></linearGradient><linearGradient id="SVGID_1_" gradientUnits="userSpaceOnUse" x1="39.948" x2="534.001" xlink:href="#lg1" y1="255" y2="255"/><linearGradient id="SVGID_2_" gradientUnits="userSpaceOnUse" x1="-120" x2="452.126" xlink:href="#lg1" y1="254.991" y2="254.991"/><linearGradient id="lg2"><stop offset="0" stop-color="#f8f6f7"/><stop offset=".1788" stop-color="#f8f6f7"/><stop offset="1" stop-color="#e7e6f5"/></linearGradient><linearGradient id="SVGID_3_" gradientUnits="userSpaceOnUse" x1="62.5" x2="482.75" xlink:href="#lg2" y1="256.924" y2="256.924"/><linearGradient id="SVGID_4_" gradientUnits="userSpaceOnUse" x1="62.5" x2="482.75" xlink:href="#lg2" y1="189.277" y2="189.277"/><linearGradient id="SVGID_6_" gradientUnits="userSpaceOnUse" x1="62.5" x2="482.75" xlink:href="#lg2" y1="115.8" y2="115.8"/><linearGradient id="SVGID_8_" gradientUnits="userSpaceOnUse" x1="98.822" x2="350.231" y1="256.924" y2="256.924"><stop offset="0" stop-color="#f8f6f7"/><stop offset="1" stop-color="#d1ceeb"/></linearGradient><g><path d="m470.052 215.052c0 80.517-98.833 201.909-162.497 271.752-28.191 30.928-76.919 30.928-105.11 0-63.664-69.843-162.497-191.236-162.497-271.752 0-118.77 96.282-215.052 215.052-215.052s215.052 96.282 215.052 215.052z" fill="url(#SVGID_1_)"/><path d="m255 0c-6.749 0-13.42.327-20.01.935 109.386 10.095 195.042 102.096 195.042 214.117 0 80.517-98.833 201.909-162.497 271.752-9.151 10.039-20.471 16.798-32.545 20.32 25.122 7.327 53.525.568 72.565-20.32 63.664-69.844 162.497-191.236 162.497-271.752 0-118.77-96.282-215.052-215.052-215.052z" fill="url(#SVGID_2_)"/><g><g><path d="m255 179.02c-25.764 0-49.986 10.033-68.204 28.251s-28.251 42.44-28.251 68.204c0 16.024 4.014 31.898 11.609 45.906 3.654 6.74 10.059 11.461 17.572 12.953 7.464 1.482 15.128-.415 21.026-5.205 13.207-10.726 29.199-16.395 46.248-16.395s33.041 5.669 46.248 16.394c4.585 3.724 10.238 5.7 16.034 5.7 2.347 0 4.717-.324 7.05-.987 6.835-1.943 12.479-6.763 15.822-13.033 7.581-14.217 11.485-30.276 11.294-46.491-.301-25.61-10.459-49.584-28.601-67.508-18.139-17.92-42.234-27.79-67.847-27.789z" fill="url(#SVGID_3_)"/><circle cx="147.428" cy="189.277" fill="url(#SVGID_4_)" r="34.095"/><circle cx="362.572" cy="189.277" fill="url(#SVGID_4_)" r="34.095"/><g fill="url(#SVGID_6_)"><circle cx="305" cy="115.8" r="34.095"/><circle cx="205" cy="115.8" r="34.095"/></g></g><path d="m322.848 206.809c-18.14-17.921-42.235-27.79-67.848-27.79-6.204 0-12.318.588-18.281 1.726 18.635 3.549 35.784 12.497 49.518 26.064 18.142 17.923 28.3 41.898 28.601 67.508.191 16.215-3.713 32.275-11.294 46.491-1.267 2.376-2.866 4.542-4.733 6.424.822.614 1.635 1.245 2.437 1.896 4.585 3.724 10.238 5.7 16.034 5.7 2.347 0 4.717-.324 7.05-.987 6.835-1.943 12.479-6.763 15.822-13.033 7.581-14.217 11.485-30.276 11.294-46.491-.301-25.61-10.458-49.584-28.6-67.508z" fill="url(#SVGID_8_)"/></g></g></svg>