<svg xmlns="http://www.w3.org/2000/svg" viewBox="0 0 48 48" width="48" height="48"><title>paw</title><g class="nc-icon-wrapper"><path fill="#444444" d="M33.10645,24.479C31.06055,21.04834,27.65625,19,24,19s-7.06055,2.04834-9.10645,5.479l-3.8457,7.53857 c-2.0918,4.10352-0.79297,8.30469,1.42285,10.64746c2.19336,2.31836,5.1875,2.96191,8.01465,1.71484 c2.5-1.10254,4.53516-1.10059,7.0293,0c0.9502,0.41895,1.91992,0.625,2.87109,0.625c1.87891,0,3.6875-0.80078,5.14355-2.33984 c2.21582-2.34277,3.51465-6.54395,1.42285-10.64746L33.10645,24.479z"/> <path fill="#7C7C7C" d="M16.80078,16.92773c0.07422,0,0.14941-0.00195,0.22461-0.00586 c1.49609-0.07812,2.84375-0.90186,3.7959-2.31982c0.8916-1.32861,1.33105-3.04053,1.23828-4.81982 c-0.19922-3.78076-2.77441-6.73096-5.75195-6.57422c-2.97363,0.15527-5.23145,3.3584-5.03418,7.13965 C11.46777,14.0332,13.92285,16.92773,16.80078,16.92773z"/> <path fill="#7C7C7C" d="M10.27734,19.80176c-0.46486-1.5083-1.33203-2.80615-2.44336-3.6543 c-1.21191-0.92627-2.57031-1.22021-3.82031-0.83594c-1.25293,0.38574-2.20898,1.39404-2.69043,2.83887 c-0.44238,1.32666-0.43066,2.8877,0.0332,4.39551c0.46484,1.5083,1.33203,2.80664,2.44336,3.6543 c0.86426,0.66016,1.80371,1,2.72559,1c0.37012,0,0.73633-0.05371,1.09473-0.16406c1.25391-0.38574,2.20898-1.39453,2.69043-2.83936 C10.75293,22.87061,10.74121,21.30957,10.27734,19.80176z"/> <path fill="#7C7C7C" d="M46.67676,18.15039c-0.48145-1.44482-1.4375-2.45312-2.69043-2.83838 c-1.25195-0.38623-2.60938-0.09033-3.82031,0.83545c-1.11133,0.84814-1.97853,2.146-2.44336,3.6543 c-0.46387,1.50781-0.47559,3.06885-0.0332,4.39502c0.48145,1.44482,1.43652,2.45361,2.69043,2.83936 c0.3584,0.11035,0.72461,0.16406,1.09473,0.16406c0.92188,0,1.86133-0.33984,2.72559-1 c1.11133-0.84766,1.97852-2.146,2.44336-3.6543C47.10742,21.03809,47.11914,19.47705,46.67676,18.15039z"/> <path fill="#7C7C7C" d="M30.96094,16.92139c0.08105,0.00439,0.16113,0.00635,0.24121,0.00635 c1.4082,0,2.74219-0.67139,3.7793-1.90967c1.02832-1.22607,1.64746-2.88135,1.74316-4.66064 c0.09668-1.7793-0.33984-3.4917-1.22852-4.82227c-0.94922-1.41943-2.29492-2.24561-3.79004-2.32666 c-0.0791-0.00439-0.15625-0.00635-0.2334-0.00635c-2.87402,0-5.33203,2.88867-5.53223,6.5708 C25.73633,13.55371,27.98926,16.76025,30.96094,16.92139z"/></g></svg>